<svg id="eurYREFDiQj1" xmlns="http://www.w3.org/2000/svg" xmlns:xlink="http://www.w3.org/1999/xlink" viewBox="0 0 419.16 332.28" shape-rendering="geometricPrecision" text-rendering="geometricPrecision"><style><![CDATA[#eurYREFDiQj2_to {animation: eurYREFDiQj2_to__to 3000ms linear infinite alternate-reverse forwards}@keyframes eurYREFDiQj2_to__to { 0% {transform: translate(-32.603833px,-50.599998px)} 10% {transform: translate(-12.995588px,-50.599998px)} 20% {transform: translate(-32.603833px,-50.599998px)} 30% {transform: translate(-32.603833px,-50.599998px)} 40% {transform: translate(-12.995588px,-50.599998px)} 50% {transform: translate(-32.603833px,-50.599998px)} 60% {transform: translate(-12.995588px,-50.599998px)} 70% {transform: translate(-32.603833px,-50.599998px)} 80% {transform: translate(-32.603833px,-50.599998px)} 90% {transform: translate(-12.995588px,-50.599998px)} 100% {transform: translate(-32.603833px,-50.599998px)}} #eurYREFDiQj3_to {animation: eurYREFDiQj3_to__to 3000ms linear infinite alternate-reverse forwards}@keyframes eurYREFDiQj3_to__to { 0% {transform: translate(-41.108907px,-47.02971px)} 23.333333% {transform: translate(-41.108907px,-42.812205px)} 50% {transform: translate(-41.108907px,-47.02971px)} 76.666667% {transform: translate(-41.108907px,-42.812205px)} 100% {transform: translate(-41.108907px,-47.02971px)}} #eurYREFDiQj4_to {animation: eurYREFDiQj4_to__to 3000ms linear infinite alternate-reverse forwards}@keyframes eurYREFDiQj4_to__to { 0% {transform: translate(-46.159966px,-48.909998px)} 10% {transform: translate(-64.095588px,-48.909998px)} 20% {transform: translate(-44.369774px,-48.909998px)} 30% {transform: translate(-46.159966px,-48.909998px)} 40% {transform: translate(-64.095588px,-48.909998px)} 50% {transform: translate(-32.603833px,-50.599998px)} 60% {transform: translate(-64.095588px,-48.909998px)} 70% {transform: translate(-44.369774px,-48.909998px)} 80% {transform: translate(-46.159966px,-48.909998px)} 90% {transform: translate(-64.095588px,-48.909998px)} 100% {transform: translate(-44.369774px,-48.909998px)}} #eurYREFDiQj5_to {animation: eurYREFDiQj5_to__to 3000ms linear infinite alternate-reverse forwards}@keyframes eurYREFDiQj5_to__to { 0% {transform: translate(230.044106px,35.593133px)} 23.333333% {transform: translate(216.68906px,35.593133px)} 50% {transform: translate(232.20162px,35.593138px)} 76.666667% {transform: translate(242.723621px,35.593133px)} 100% {transform: translate(230.7032px,35.593133px)}}]]></style><g id="eurYREFDiQj2_to" transform="translate(-32.603833,-50.599998)"><path id="eurYREFDiQj2" d="M128.49,297.08L181.14,244.43L128.49,191.78" transform="translate(0,0)" fill="none" stroke="rgb(109,231,183)" stroke-width="12.04" stroke-linecap="round" stroke-linejoin="round"/></g><g id="eurYREFDiQj3_to" transform="translate(-41.108907,-47.02971)"><path id="eurYREFDiQj3" d="M208.53,299.08L298.77,299.08" transform="scale(1,0.947322) translate(0,0)" fill="none" stroke="rgb(109,231,183)" stroke-width="12.04" stroke-linecap="round" stroke-linejoin="round"/></g><g id="eurYREFDiQj4_to" transform="translate(-44.369774,-48.909998)"><path id="eurYREFDiQj4" d="M375.13,190.09L322.48,242.74L375.13,295.39" transform="translate(0,0)" fill="none" stroke="rgb(109,231,183)" stroke-width="12.04" stroke-linecap="round" stroke-linejoin="round"/></g><g id="eurYREFDiQj5_to" transform="translate(230.7032,35.593133)"><g id="eurYREFDiQj5" transform="translate(-229.051056,-34.245832)"><path id="eurYREFDiQj6" d="M180.56,82.61L180.56,89C180.524591,89.3432,180.637376,89.685194,180.87,89.94C181.159747,90.148623,181.514047,90.247827,181.87,90.22L183.34,90.22L183.34,92.22L181.45,92.22C180.558274,92.277913,179.676169,92.00759,178.97,91.46C178.331024,90.808666,178.012577,89.908231,178.1,89L178.1,82.61L176.74,82.61L176.74,80.61L178.1,80.61L178.1,77.78L180.52,77.78L180.52,80.66L183.34,80.66L183.34,82.66Z" transform="matrix(1 0 0 1 -42.34 -52.599998)" fill="rgb(109,231,183)" stroke="none" stroke-width="1"/><path id="eurYREFDiQj7" d="M193.94,81C194.638699,81.384936,195.206343,81.969993,195.57,82.68C195.990975,83.51268,196.197221,84.437351,196.17,85.37L196.17,92.2L193.8,92.2L193.8,85.77C193.859071,84.902414,193.579479,84.045716,193.02,83.38C191.818572,82.275605,189.971428,82.275605,188.77,83.38C188.202198,84.041543,187.918314,84.900384,187.98,85.77L187.98,92.24L185.58,92.24L185.58,76.69L188,76.69L188,82C188.414547,81.504497,188.942945,81.116776,189.54,80.87C190.173174,80.604147,190.85328,80.468125,191.54,80.47C192.372076,80.439458,193.198169,80.621887,193.94,81Z" transform="matrix(1 0 0 1 -42.34 -52.599998)" fill="rgb(109,231,183)" stroke="none" stroke-width="1"/><path id="eurYREFDiQj8" d="M209.75,87.34L200.9,87.34C200.924081,88.18661,201.283849,88.988892,201.9,89.57C202.520289,90.131829,203.333403,90.432717,204.17,90.41C205.32777,90.487856,206.413595,89.84352,206.9,88.79L209.49,88.79C209.148374,89.841626,208.483435,90.758541,207.59,91.41C206.589282,92.106799,205.388471,92.457913,204.17,92.41C203.12083,92.433611,202.084627,92.174561,201.17,91.66C200.299934,91.167102,199.586077,90.439383,199.11,89.56C198.595787,88.594619,198.337572,87.513559,198.36,86.42C198.334503,85.328506,198.585632,84.248309,199.09,83.28C199.536172,82.401488,200.231964,81.674385,201.09,81.19C202.948672,80.22411,205.161328,80.22411,207.02,81.19C207.862226,81.654331,208.555669,82.347774,209.02,83.19C209.509625,84.112715,209.7541,85.145704,209.73,86.19C209.763187,86.572413,209.769869,86.956664,209.75,87.34ZM207.33,85.41C207.348706,84.598472,207.003977,83.820999,206.39,83.29C205.753404,82.74663,204.936468,82.461238,204.1,82.49C203.317121,82.472569,202.556481,82.751114,201.97,83.27C201.368701,83.829906,200.994874,84.591801,200.92,85.41Z" transform="matrix(1 0 0 1 -42.34 -52.599998)" fill="rgb(109,231,183)" stroke="none" stroke-width="1"/><path id="eurYREFDiQj9" d="M213.94,91.93C213.266066,91.634772,212.677805,91.173795,212.23,90.59C211.814073,90.04199,211.57982,89.37769,211.56,88.69L214,88.69C214.046056,89.181189,214.305683,89.627308,214.71,89.91C215.174822,90.253662,215.742274,90.429889,216.32,90.41C216.867661,90.442743,217.412178,90.306614,217.88,90.02C218.226884,89.80579,218.438619,89.427692,218.44,89.02C218.472048,88.587488,218.22165,88.183619,217.82,88.02C217.174388,87.732985,216.505247,87.502131,215.82,87.33C215.101788,87.137114,214.394155,86.906799,213.7,86.64C213.155643,86.421076,212.669547,86.078755,212.28,85.64C211.861012,85.12495,211.647305,84.473143,211.68,83.81C211.6799,83.202662,211.872469,82.610949,212.23,82.12C212.632814,81.580663,213.175848,81.162147,213.8,80.91C214.542152,80.606371,215.338251,80.456677,216.14,80.47C217.28554,80.41184,218.41392,80.766676,219.32,81.47C220.132568,82.141122,220.608148,83.136182,220.62,84.19L218.22,84.19C218.197702,83.705404,217.968236,83.253757,217.59,82.95C217.149372,82.62269,216.608071,82.459945,216.06,82.49C215.552421,82.457668,215.046939,82.579681,214.61,82.84C214.273168,83.057934,214.078629,83.439383,214.1,83.84C214.091549,84.137654,214.216188,84.423589,214.44,84.62C214.676029,84.83892,214.955387,85.005853,215.26,85.11C215.58,85.23,216.06,85.38,216.69,85.56C217.395746,85.739747,218.087555,85.97035,218.76,86.25C219.290085,86.47909,219.764282,86.820239,220.15,87.25C220.561673,87.754064,220.778199,88.389444,220.76,89.04C220.771013,89.672162,220.582019,90.291644,220.22,90.81C219.837206,91.331355,219.32309,91.741957,218.73,92C217.99086,92.314646,217.193121,92.468058,216.39,92.45C215.545305,92.456206,214.709351,92.278779,213.94,91.93Z" transform="matrix(1 0 0 1 -42.34 -52.599998)" fill="rgb(109,231,183)" stroke="none" stroke-width="1"/><path id="eurYREFDiQj10" d="M225.47,91.68C224.592225,91.190524,223.871054,90.462419,223.39,89.58C222.867609,88.617352,222.605634,87.534984,222.63,86.44C222.608803,85.346067,222.877941,84.266061,223.41,83.31C223.900503,82.421063,224.636454,81.692055,225.53,81.21C227.409113,80.22659,229.650887,80.22659,231.53,81.21C232.419238,81.697849,233.153745,82.425426,233.65,83.31C234.182059,84.266061,234.451197,85.346067,234.43,86.44C234.448494,87.536155,234.172201,88.617154,233.63,89.57C233.114249,90.462811,232.359163,91.193652,231.45,91.68C230.529238,92.178963,229.497243,92.436962,228.45,92.43C227.407802,92.44809,226.37947,92.189282,225.47,91.68ZM230.16,89.9C230.715568,89.596526,231.170759,89.13786,231.47,88.58C231.826665,87.924476,232.002675,87.185927,231.98,86.44C232.002327,85.697669,231.837245,84.961679,231.5,84.3C231.200389,83.754291,230.75338,83.303816,230.21,83C229.683679,82.708781,229.091511,82.557296,228.49,82.56C227.891539,82.55631,227.302354,82.707913,226.78,83C226.244832,83.30585,225.810442,83.76109,225.53,84.31C225.204427,84.975141,225.046504,85.709826,225.07,86.45C225.013919,87.506849,225.372734,88.543825,226.07,89.34C226.692547,90.00382,227.570366,90.36806,228.48,90.34C229.067959,90.335947,229.645537,90.184677,230.16,89.9Z" transform="matrix(1 0 0 1 -42.34 -52.599998)" fill="rgb(109,231,183)" stroke="none" stroke-width="1"/><path id="eurYREFDiQj11" d="M245.16,81C245.862404,81.383351,246.433683,81.968564,246.8,82.68C247.220975,83.51268,247.427221,84.437351,247.4,85.37L247.4,92.2L245,92.2L245,85.77C245.059071,84.902414,244.779479,84.045716,244.22,83.38C243.018572,82.275605,241.171428,82.275605,239.97,83.38C239.402198,84.041543,239.118314,84.900384,239.18,85.77L239.18,92.24L236.78,92.24L236.78,76.69L239.18,76.69L239.18,82C239.594547,81.504497,240.122945,81.116776,240.72,80.87C241.368673,80.597497,242.066467,80.461342,242.77,80.47C243.599003,80.438039,244.422221,80.620594,245.16,81Z" transform="matrix(1 0 0 1 -42.34 -52.599998)" fill="rgb(109,231,183)" stroke="none" stroke-width="1"/><path id="eurYREFDiQj12" d="M250.38,83.31C250.836909,82.439152,251.530094,81.714774,252.38,81.22C253.213887,80.721799,254.168654,80.462352,255.14,80.47C255.969123,80.44899,256.790451,80.634562,257.53,81.01C258.164816,81.327627,258.721461,81.781823,259.16,82.34L259.16,80.66L261.57,80.66L261.57,92.24L259.16,92.24L259.16,90.51C258.719561,91.088416,258.151459,91.557272,257.5,91.88C256.755833,92.253565,255.932578,92.442227,255.1,92.43C254.135644,92.435559,253.189324,92.168648,252.37,91.66C251.519235,91.144145,250.827202,90.40367,250.37,89.52C249.87132,88.556769,249.620433,87.484488,249.64,86.4C249.618612,85.323693,249.873381,84.259859,250.38,83.31ZM258.64,84.31C258.336628,83.750788,257.88737,83.284251,257.34,82.96C256.819045,82.653396,256.224457,82.494378,255.62,82.5C255.017021,82.495747,254.423637,82.650993,253.9,82.95C253.349147,83.260871,252.898225,83.722199,252.6,84.28C252.258284,84.915212,252.089319,85.629004,252.11,86.35C252.094059,87.080076,252.262594,87.802371,252.6,88.45C252.900625,89.019707,253.354318,89.49418,253.91,89.82C254.425423,90.133265,255.016845,90.299279,255.62,90.3C256.225331,90.302093,256.819851,90.139637,257.34,89.83C257.889602,89.508577,258.339538,89.041335,258.64,88.48C258.974965,87.835058,259.143404,87.116617,259.13,86.39C259.136369,85.683302,258.968049,84.985976,258.64,84.36Z" transform="matrix(1 0 0 1 -42.34 -52.599998)" fill="rgb(109,231,183)" stroke="none" stroke-width="1"/><path id="eurYREFDiQj13" d="M264.82,78.68C264.529151,78.392987,264.369906,77.998495,264.38,77.59C264.371097,77.181722,264.530159,76.787684,264.82,76.5C265.109409,76.206571,265.508064,76.04711,265.92,76.06C266.322493,76.05064,266.710524,76.210204,266.99,76.5C267.279841,76.787684,267.438903,77.181722,267.43,77.59C267.440094,77.998495,267.280849,78.392987,266.99,78.68C266.710524,78.969796,266.322493,79.12936,265.92,79.12C265.508064,79.13289,265.109409,78.973429,264.82,78.68ZM267.09,80.68L267.09,92.24L264.7,92.24L264.7,80.66Z" transform="matrix(1 0 0 1 -42.34 -52.599998)" fill="rgb(109,231,183)" stroke="none" stroke-width="1"/><path id="eurYREFDiQj14" d="M272.64,76.69L272.64,92.24L270.24,92.24L270.24,76.69Z" transform="matrix(1 0 0 1 -42.34 -52.599998)" fill="rgb(109,231,183)" stroke="none" stroke-width="1"/><path id="eurYREFDiQj15" d="M278.19,94.51C278.268345,95.416444,277.959564,96.313726,277.34,96.98C276.64001,97.53203,275.759241,97.803036,274.87,97.74L273.63,97.74L273.63,95.74L274.45,95.74C274.807079,95.764075,275.161202,95.661379,275.45,95.45C275.673082,95.194132,275.781514,94.857996,275.75,94.52L275.75,80.66L278.15,80.66ZM275.92,78.68C275.624967,78.395793,275.464946,77.999379,275.48,77.59C275.471831,77.18351,275.62902,76.791116,275.915565,76.502686C276.202111,76.214255,276.593465,76.054497,277,76.06C277.402722,76.049398,277.791235,76.20916,278.07,76.5C278.363964,76.784928,278.523783,77.180844,278.51,77.59C278.518106,77.994737,278.362276,78.385568,278.077916,78.673695C277.793555,78.961822,277.404809,79.12278,277,79.12C276.594286,79.130945,276.202556,78.971351,275.92,78.68Z" transform="matrix(1 0 0 1 -42.34 -52.599998)" fill="rgb(109,231,183)" stroke="none" stroke-width="1"/><path id="eurYREFDiQj16" d="M281.27,83.31C282.187362,81.549374,284.014795,80.452141,286,80.47C286.829123,80.44899,287.650451,80.634562,288.39,81.01C289.01759,81.330079,289.567209,81.784111,290,82.34L290,80.66L292.41,80.66L292.41,92.24L290,92.24L290,90.51C289.559561,91.088416,288.991459,91.557272,288.34,91.88C287.595833,92.253565,286.772578,92.442227,285.94,92.43C284.975644,92.435559,284.029324,92.168648,283.21,91.66C282.359235,91.144145,281.667202,90.40367,281.21,89.52C280.71132,88.556769,280.460433,87.484488,280.48,86.4C280.473939,85.31929,280.74599,84.255191,281.27,83.31ZM289.52,84.31C289.214422,83.766179,288.769055,83.313908,288.23,83C287.708462,82.694789,287.114267,82.535877,286.51,82.54C285.907021,82.535747,285.313637,82.690993,284.79,82.99C284.239147,83.300871,283.788225,83.762199,283.49,84.32C283.146573,84.958171,282.977554,85.675638,283,86.4C282.984059,87.130076,283.152594,87.852371,283.49,88.5C283.790625,89.069707,284.244318,89.54418,284.8,89.87C285.315009,90.184217,285.906703,90.350307,286.51,90.35C287.115133,90.3506,287.709263,90.188251,288.23,89.88C288.77657,89.557954,289.223118,89.090636,289.52,88.53C289.862955,87.887669,290.035125,87.167996,290.02,86.44C290.036576,85.715034,289.864267,84.998225,289.52,84.36Z" transform="matrix(1 0 0 1 -42.34 -52.599998)" fill="rgb(109,231,183)" stroke="none" stroke-width="1"/><path id="eurYREFDiQj17" d="M300.44,82.61L298.3,82.61L298.3,92.24L295.88,92.24L295.88,82.61L294.51,82.61L294.51,80.61L295.88,80.61L295.88,79.79C295.782477,78.710564,296.171052,77.643815,296.94,76.88C297.905431,76.187416,299.085947,75.861268,300.27,75.96L300.27,77.96C299.727087,77.905768,299.183046,78.051557,298.74,78.37C298.40233,78.761597,298.242912,79.276084,298.3,79.79L298.3,80.61L300.44,80.61Z" transform="matrix(1 0 0 1 -42.34 -52.599998)" fill="rgb(109,231,183)" stroke="none" stroke-width="1"/><path id="eurYREFDiQj18" d="M306.35,81C306.986037,80.660462,307.699242,80.491636,308.42,80.51L308.42,83L307.81,83C307.034864,82.952046,306.271336,83.206555,305.68,83.71C305.127994,84.412284,304.869894,85.301296,304.96,86.19L304.96,92.29L302.56,92.29L302.56,80.66L305,80.66L305,82.34C305.327356,81.784732,305.792314,81.323219,306.35,81Z" transform="matrix(1 0 0 1 -42.34 -52.599998)" fill="rgb(109,231,183)" stroke="none" stroke-width="1"/><path id="eurYREFDiQj19" d="M310.76,78.68C310.464967,78.395793,310.304946,77.999379,310.32,77.59C310.31175,77.181745,310.470295,76.787772,310.759034,76.499034C311.047772,76.210295,311.441745,76.05175,311.85,76.06C312.252722,76.049398,312.641235,76.20916,312.92,76.5C313.213964,76.784928,313.373783,77.180844,313.36,77.59C313.368106,77.994737,313.212276,78.385568,312.927916,78.673695C312.643555,78.961822,312.254809,79.12278,311.85,79.12C311.440844,79.133783,311.044928,78.973964,310.76,78.68ZM313.03,80.68L313.03,92.24L310.63,92.24L310.63,80.66Z" transform="matrix(1 0 0 1 -42.34 -52.599998)" fill="rgb(109,231,183)" stroke="none" stroke-width="1"/><path id="eurYREFDiQj20" d="M316.05,91.94C315.463274,91.331767,315.463274,90.368233,316.05,89.76C316.654854,89.174508,317.615146,89.174508,318.22,89.76C318.806726,90.368233,318.806726,91.331767,318.22,91.94C317.615146,92.525492,316.654854,92.525492,316.05,91.94Z" transform="matrix(1 0 0 1 -42.34 -52.599998)" fill="rgb(109,231,183)" stroke="none" stroke-width="1"/><path id="eurYREFDiQj21" d="M321.17,83.3C321.619556,82.423892,322.314515,81.69766,323.17,81.21C324.064855,80.701521,325.081055,80.445743,326.11,80.47C327.347335,80.420591,328.567651,80.771257,329.59,81.47C330.524869,82.166456,331.180804,83.173404,331.44,84.31L328.86,84.31C328.673824,83.77037,328.324332,83.302051,327.86,82.97C327.343027,82.635174,326.735522,82.467587,326.12,82.49C325.224427,82.443423,324.3574,82.81237,323.77,83.49C323.142997,84.325587,322.834522,85.357382,322.9,86.4C322.838234,87.445283,323.146217,88.478973,323.77,89.32C324.358305,89.996386,325.224695,90.365062,326.12,90.32C327.350253,90.422024,328.489029,89.664221,328.87,88.49L331.45,88.49C331.156236,89.6136,330.489912,90.604272,329.56,91.3C328.55441,92.002362,327.34541,92.353816,326.12,92.3C325.09018,92.320714,324.074052,92.061497,323.18,91.55C322.328025,91.053387,321.634488,90.325173,321.18,89.45C320.206948,87.469743,320.206948,85.150257,321.18,83.17Z" transform="matrix(1 0 0 1 -42.34 -52.599998)" fill="rgb(109,231,183)" stroke="none" stroke-width="1"/><path id="eurYREFDiQj22" d="M335.91,91.68C335.034205,91.18792,334.313677,90.460464,333.83,89.58C333.307609,88.617352,333.045634,87.534984,333.07,86.44C333.048803,85.346067,333.317941,84.266061,333.85,83.31C334.346255,82.425426,335.080762,81.697849,335.97,81.21C337.849113,80.22659,340.090887,80.22659,341.97,81.21C342.863546,81.692055,343.599497,82.421063,344.09,83.31C344.622059,84.266061,344.891197,85.346067,344.87,86.44C344.894516,87.536852,344.617818,88.619431,344.07,89.57C343.558237,90.462438,342.806433,91.193455,341.9,91.68C340.97861,92.177345,339.947036,92.435239,338.9,92.43C337.854425,92.449869,336.822413,92.191003,335.91,91.68ZM340.61,89.9C341.161177,89.590719,341.614919,89.133513,341.92,88.58C342.273192,87.923515,342.445738,87.18502,342.42,86.44C342.442327,85.697669,342.277245,84.961679,341.94,84.3C341.643974,83.754993,341.200352,83.30444,340.66,83C339.588459,82.412994,338.291541,82.412994,337.22,83C336.699428,83.3103,336.276656,83.760795,336,84.3C335.674427,84.965141,335.516504,85.699826,335.54,86.44C335.484985,87.496699,335.843665,88.533284,336.54,89.33C337.157936,89.994444,338.033091,90.359092,338.94,90.33C339.523655,90.326933,340.097443,90.179191,340.61,89.9Z" transform="matrix(1 0 0 1 -42.34 -52.599998)" fill="rgb(109,231,183)" stroke="none" stroke-width="1"/><path id="eurYREFDiQj23" d="M363.72,81C364.444638,81.373661,365.03779,81.959834,365.42,82.68C365.852408,83.509224,366.065821,84.435162,366.04,85.37L366.04,92.2L363.67,92.2L363.67,85.77C363.729071,84.902414,363.449479,84.045716,362.89,83.38C362.333497,82.814477,361.562538,82.512639,360.77,82.55C359.971453,82.511981,359.194079,82.813486,358.63,83.38C358.070521,84.045716,357.790929,84.902414,357.85,85.77L357.85,92.24L355.47,92.24L355.47,85.77C355.529071,84.902414,355.249479,84.045716,354.69,83.38C354.135676,82.811184,353.363174,82.508743,352.57,82.55C351.77446,82.512314,351.000295,82.813984,350.44,83.38C349.872198,84.041543,349.588314,84.900384,349.65,85.77L349.65,92.24L347.26,92.24L347.26,80.66L349.65,80.66L349.65,82C350.054687,81.52033,350.564574,81.140481,351.14,80.89C351.751002,80.620658,352.41229,80.48431,353.08,80.49C353.942861,80.477431,354.795239,80.680214,355.56,81.08C356.278263,81.464763,356.863764,82.057235,357.24,82.78C357.599009,82.065838,358.172462,81.481894,358.88,81.11C359.610179,80.701455,360.433301,80.487925,361.27,80.49C362.116075,80.45721,362.957289,80.63232,363.72,81Z" transform="matrix(1 0 0 1 -42.34 -52.599998)" fill="rgb(109,231,183)" stroke="none" stroke-width="1"/></g></g><g id="eurYREFDiQj24"><path id="eurYREFDiQj25" d="M427,378.86L76.85,378.86C61.12,378.86,48.36,368.86,48.36,356.45L48.36,81C48.36,68.62,61.12,58.59,76.85,58.59L427,58.59C442.73,58.59,455.48,68.59,455.48,81L455.48,356.45C455.48,368.83,442.73,378.86,427,378.86ZM452.94,110L48.36,110" transform="matrix(1 0 0 1 -42.34 -52.599998)" fill="none" stroke="rgb(237,241,255)" stroke-width="12.04" stroke-linecap="round" stroke-linejoin="round"/><path id="eurYREFDiQj26" d="M136.35,84.31L136.48,84.31M80.05,84.31L80.19,84.31M108.19,84.31L108.33,84.31" transform="matrix(1 0 0 1 -42.34 -52.599998)" fill="none" stroke="rgb(109,231,183)" stroke-width="15.05" stroke-linecap="round" stroke-linejoin="round"/><path id="eurYREFDiQj27" d="M426,86.46L431.69,95.6L428.3,95.6L424.17,89L420.3,95.6L417,95.6L422.69,86.46L416.97,77.29L420.35,77.29L424.46,84L428.36,77.31L431.7,77.31Z" transform="matrix(1 0 0 1 -42.34 -52.599998)" fill="rgb(109,231,183)" stroke="none" stroke-width="1"/></g></svg>