<svg id="emKbCM0qUrc1" xmlns="http://www.w3.org/2000/svg" xmlns:xlink="http://www.w3.org/1999/xlink" viewBox="0 0 419.16 332.28" shape-rendering="geometricPrecision" text-rendering="geometricPrecision"><path id="emKbCM0qUrc2" d="M128.49,297.08L181.14,244.43L128.49,191.78" transform="matrix(1 0 0 1 -32.603833 -50.599998)" fill="none" stroke="rgb(109,231,183)" stroke-width="12.04" stroke-linecap="round" stroke-linejoin="round"/><path id="emKbCM0qUrc3" d="M208.53,299.08L298.77,299.08" transform="matrix(1 0 0 0.947322 -41.108907 -47.02971)" fill="none" stroke="rgb(109,231,183)" stroke-width="12.04" stroke-linecap="round" stroke-linejoin="round"/><path id="emKbCM0qUrc4" d="M375.13,190.09L322.48,242.74L375.13,295.39" transform="matrix(1 0 0 1 -44.369774 -48.909998)" fill="none" stroke="rgb(109,231,183)" stroke-width="12.04" stroke-linecap="round" stroke-linejoin="round"/><g id="emKbCM0qUrc5" transform="matrix(1 0 0 1 1.652144 1.347301)"><path id="emKbCM0qUrc6" d="M180.56,82.61L180.56,89C180.524591,89.3432,180.637376,89.685194,180.87,89.94C181.159747,90.148623,181.514047,90.247827,181.87,90.22L183.34,90.22L183.34,92.22L181.45,92.22C180.558274,92.277913,179.676169,92.00759,178.97,91.46C178.331024,90.808666,178.012577,89.908231,178.1,89L178.1,82.61L176.74,82.61L176.74,80.61L178.1,80.61L178.1,77.78L180.52,77.78L180.52,80.66L183.34,80.66L183.34,82.66Z" transform="matrix(1 0 0 1 -42.34 -52.599998)" fill="rgb(109,231,183)" stroke="none" stroke-width="1"/><path id="emKbCM0qUrc7" d="M193.94,81C194.638699,81.384936,195.206343,81.969993,195.57,82.68C195.990975,83.51268,196.197221,84.437351,196.17,85.37L196.17,92.2L193.8,92.2L193.8,85.77C193.859071,84.902414,193.579479,84.045716,193.02,83.38C191.818572,82.275605,189.971428,82.275605,188.77,83.38C188.202198,84.041543,187.918314,84.900384,187.98,85.77L187.98,92.24L185.58,92.24L185.58,76.69L188,76.69L188,82C188.414547,81.504497,188.942945,81.116776,189.54,80.87C190.173174,80.604147,190.85328,80.468125,191.54,80.47C192.372076,80.439458,193.198169,80.621887,193.94,81Z" transform="matrix(1 0 0 1 -42.34 -52.599998)" fill="rgb(109,231,183)" stroke="none" stroke-width="1"/><path id="emKbCM0qUrc8" d="M209.75,87.34L200.9,87.34C200.924081,88.18661,201.283849,88.988892,201.9,89.57C202.520289,90.131829,203.333403,90.432717,204.17,90.41C205.32777,90.487856,206.413595,89.84352,206.9,88.79L209.49,88.79C209.148374,89.841626,208.483435,90.758541,207.59,91.41C206.589282,92.106799,205.388471,92.457913,204.17,92.41C203.12083,92.433611,202.084627,92.174561,201.17,91.66C200.299934,91.167102,199.586077,90.439383,199.11,89.56C198.595787,88.594619,198.337572,87.513559,198.36,86.42C198.334503,85.328506,198.585632,84.248309,199.09,83.28C199.536172,82.401488,200.231964,81.674385,201.09,81.19C202.948672,80.22411,205.161328,80.22411,207.02,81.19C207.862226,81.654331,208.555669,82.347774,209.02,83.19C209.509625,84.112715,209.7541,85.145704,209.73,86.19C209.763187,86.572413,209.769869,86.956664,209.75,87.34ZM207.33,85.41C207.348706,84.598472,207.003977,83.820999,206.39,83.29C205.753404,82.74663,204.936468,82.461238,204.1,82.49C203.317121,82.472569,202.556481,82.751114,201.97,83.27C201.368701,83.829906,200.994874,84.591801,200.92,85.41Z" transform="matrix(1 0 0 1 -42.34 -52.599998)" fill="rgb(109,231,183)" stroke="none" stroke-width="1"/><path id="emKbCM0qUrc9" d="M213.94,91.93C213.266066,91.634772,212.677805,91.173795,212.23,90.59C211.814073,90.04199,211.57982,89.37769,211.56,88.69L214,88.69C214.046056,89.181189,214.305683,89.627308,214.71,89.91C215.174822,90.253662,215.742274,90.429889,216.32,90.41C216.867661,90.442743,217.412178,90.306614,217.88,90.02C218.226884,89.80579,218.438619,89.427692,218.44,89.02C218.472048,88.587488,218.22165,88.183619,217.82,88.02C217.174388,87.732985,216.505247,87.502131,215.82,87.33C215.101788,87.137114,214.394155,86.906799,213.7,86.64C213.155643,86.421076,212.669547,86.078755,212.28,85.64C211.861012,85.12495,211.647305,84.473143,211.68,83.81C211.6799,83.202662,211.872469,82.610949,212.23,82.12C212.632814,81.580663,213.175848,81.162147,213.8,80.91C214.542152,80.606371,215.338251,80.456677,216.14,80.47C217.28554,80.41184,218.41392,80.766676,219.32,81.47C220.132568,82.141122,220.608148,83.136182,220.62,84.19L218.22,84.19C218.197702,83.705404,217.968236,83.253757,217.59,82.95C217.149372,82.62269,216.608071,82.459945,216.06,82.49C215.552421,82.457668,215.046939,82.579681,214.61,82.84C214.273168,83.057934,214.078629,83.439383,214.1,83.84C214.091549,84.137654,214.216188,84.423589,214.44,84.62C214.676029,84.83892,214.955387,85.005853,215.26,85.11C215.58,85.23,216.06,85.38,216.69,85.56C217.395746,85.739747,218.087555,85.97035,218.76,86.25C219.290085,86.47909,219.764282,86.820239,220.15,87.25C220.561673,87.754064,220.778199,88.389444,220.76,89.04C220.771013,89.672162,220.582019,90.291644,220.22,90.81C219.837206,91.331355,219.32309,91.741957,218.73,92C217.99086,92.314646,217.193121,92.468058,216.39,92.45C215.545305,92.456206,214.709351,92.278779,213.94,91.93Z" transform="matrix(1 0 0 1 -42.34 -52.599998)" fill="rgb(109,231,183)" stroke="none" stroke-width="1"/><path id="emKbCM0qUrc10" d="M225.47,91.68C224.592225,91.190524,223.871054,90.462419,223.39,89.58C222.867609,88.617352,222.605634,87.534984,222.63,86.44C222.608803,85.346067,222.877941,84.266061,223.41,83.31C223.900503,82.421063,224.636454,81.692055,225.53,81.21C227.409113,80.22659,229.650887,80.22659,231.53,81.21C232.419238,81.697849,233.153745,82.425426,233.65,83.31C234.182059,84.266061,234.451197,85.346067,234.43,86.44C234.448494,87.536155,234.172201,88.617154,233.63,89.57C233.114249,90.462811,232.359163,91.193652,231.45,91.68C230.529238,92.178963,229.497243,92.436962,228.45,92.43C227.407802,92.44809,226.37947,92.189282,225.47,91.68ZM230.16,89.9C230.715568,89.596526,231.170759,89.13786,231.47,88.58C231.826665,87.924476,232.002675,87.185927,231.98,86.44C232.002327,85.697669,231.837245,84.961679,231.5,84.3C231.200389,83.754291,230.75338,83.303816,230.21,83C229.683679,82.708781,229.091511,82.557296,228.49,82.56C227.891539,82.55631,227.302354,82.707913,226.78,83C226.244832,83.30585,225.810442,83.76109,225.53,84.31C225.204427,84.975141,225.046504,85.709826,225.07,86.45C225.013919,87.506849,225.372734,88.543825,226.07,89.34C226.692547,90.00382,227.570366,90.36806,228.48,90.34C229.067959,90.335947,229.645537,90.184677,230.16,89.9Z" transform="matrix(1 0 0 1 -42.34 -52.599998)" fill="rgb(109,231,183)" stroke="none" stroke-width="1"/><path id="emKbCM0qUrc11" d="M245.16,81C245.862404,81.383351,246.433683,81.968564,246.8,82.68C247.220975,83.51268,247.427221,84.437351,247.4,85.37L247.4,92.2L245,92.2L245,85.77C245.059071,84.902414,244.779479,84.045716,244.22,83.38C243.018572,82.275605,241.171428,82.275605,239.97,83.38C239.402198,84.041543,239.118314,84.900384,239.18,85.77L239.18,92.24L236.78,92.24L236.78,76.69L239.18,76.69L239.18,82C239.594547,81.504497,240.122945,81.116776,240.72,80.87C241.368673,80.597497,242.066467,80.461342,242.77,80.47C243.599003,80.438039,244.422221,80.620594,245.16,81Z" transform="matrix(1 0 0 1 -42.34 -52.599998)" fill="rgb(109,231,183)" stroke="none" stroke-width="1"/><path id="emKbCM0qUrc12" d="M250.38,83.31C250.836909,82.439152,251.530094,81.714774,252.38,81.22C253.213887,80.721799,254.168654,80.462352,255.14,80.47C255.969123,80.44899,256.790451,80.634562,257.53,81.01C258.164816,81.327627,258.721461,81.781823,259.16,82.34L259.16,80.66L261.57,80.66L261.57,92.24L259.16,92.24L259.16,90.51C258.719561,91.088416,258.151459,91.557272,257.5,91.88C256.755833,92.253565,255.932578,92.442227,255.1,92.43C254.135644,92.435559,253.189324,92.168648,252.37,91.66C251.519235,91.144145,250.827202,90.40367,250.37,89.52C249.87132,88.556769,249.620433,87.484488,249.64,86.4C249.618612,85.323693,249.873381,84.259859,250.38,83.31ZM258.64,84.31C258.336628,83.750788,257.88737,83.284251,257.34,82.96C256.819045,82.653396,256.224457,82.494378,255.62,82.5C255.017021,82.495747,254.423637,82.650993,253.9,82.95C253.349147,83.260871,252.898225,83.722199,252.6,84.28C252.258284,84.915212,252.089319,85.629004,252.11,86.35C252.094059,87.080076,252.262594,87.802371,252.6,88.45C252.900625,89.019707,253.354318,89.49418,253.91,89.82C254.425423,90.133265,255.016845,90.299279,255.62,90.3C256.225331,90.302093,256.819851,90.139637,257.34,89.83C257.889602,89.508577,258.339538,89.041335,258.64,88.48C258.974965,87.835058,259.143404,87.116617,259.13,86.39C259.136369,85.683302,258.968049,84.985976,258.64,84.36Z" transform="matrix(1 0 0 1 -42.34 -52.599998)" fill="rgb(109,231,183)" stroke="none" stroke-width="1"/><path id="emKbCM0qUrc13" d="M264.82,78.68C264.529151,78.392987,264.369906,77.998495,264.38,77.59C264.371097,77.181722,264.530159,76.787684,264.82,76.5C265.109409,76.206571,265.508064,76.04711,265.92,76.06C266.322493,76.05064,266.710524,76.210204,266.99,76.5C267.279841,76.787684,267.438903,77.181722,267.43,77.59C267.440094,77.998495,267.280849,78.392987,266.99,78.68C266.710524,78.969796,266.322493,79.12936,265.92,79.12C265.508064,79.13289,265.109409,78.973429,264.82,78.68ZM267.09,80.68L267.09,92.24L264.7,92.24L264.7,80.66Z" transform="matrix(1 0 0 1 -42.34 -52.599998)" fill="rgb(109,231,183)" stroke="none" stroke-width="1"/><path id="emKbCM0qUrc14" d="M272.64,76.69L272.64,92.24L270.24,92.24L270.24,76.69Z" transform="matrix(1 0 0 1 -42.34 -52.599998)" fill="rgb(109,231,183)" stroke="none" stroke-width="1"/><path id="emKbCM0qUrc15" d="M278.19,94.51C278.268345,95.416444,277.959564,96.313726,277.34,96.98C276.64001,97.53203,275.759241,97.803036,274.87,97.74L273.63,97.74L273.63,95.74L274.45,95.74C274.807079,95.764075,275.161202,95.661379,275.45,95.45C275.673082,95.194132,275.781514,94.857996,275.75,94.52L275.75,80.66L278.15,80.66ZM275.92,78.68C275.624967,78.395793,275.464946,77.999379,275.48,77.59C275.471831,77.18351,275.62902,76.791116,275.915565,76.502686C276.202111,76.214255,276.593465,76.054497,277,76.06C277.402722,76.049398,277.791235,76.20916,278.07,76.5C278.363964,76.784928,278.523783,77.180844,278.51,77.59C278.518106,77.994737,278.362276,78.385568,278.077916,78.673695C277.793555,78.961822,277.404809,79.12278,277,79.12C276.594286,79.130945,276.202556,78.971351,275.92,78.68Z" transform="matrix(1 0 0 1 -42.34 -52.599998)" fill="rgb(109,231,183)" stroke="none" stroke-width="1"/><path id="emKbCM0qUrc16" d="M281.27,83.31C282.187362,81.549374,284.014795,80.452141,286,80.47C286.829123,80.44899,287.650451,80.634562,288.39,81.01C289.01759,81.330079,289.567209,81.784111,290,82.34L290,80.66L292.41,80.66L292.41,92.24L290,92.24L290,90.51C289.559561,91.088416,288.991459,91.557272,288.34,91.88C287.595833,92.253565,286.772578,92.442227,285.94,92.43C284.975644,92.435559,284.029324,92.168648,283.21,91.66C282.359235,91.144145,281.667202,90.40367,281.21,89.52C280.71132,88.556769,280.460433,87.484488,280.48,86.4C280.473939,85.31929,280.74599,84.255191,281.27,83.31ZM289.52,84.31C289.214422,83.766179,288.769055,83.313908,288.23,83C287.708462,82.694789,287.114267,82.535877,286.51,82.54C285.907021,82.535747,285.313637,82.690993,284.79,82.99C284.239147,83.300871,283.788225,83.762199,283.49,84.32C283.146573,84.958171,282.977554,85.675638,283,86.4C282.984059,87.130076,283.152594,87.852371,283.49,88.5C283.790625,89.069707,284.244318,89.54418,284.8,89.87C285.315009,90.184217,285.906703,90.350307,286.51,90.35C287.115133,90.3506,287.709263,90.188251,288.23,89.88C288.77657,89.557954,289.223118,89.090636,289.52,88.53C289.862955,87.887669,290.035125,87.167996,290.02,86.44C290.036576,85.715034,289.864267,84.998225,289.52,84.36Z" transform="matrix(1 0 0 1 -42.34 -52.599998)" fill="rgb(109,231,183)" stroke="none" stroke-width="1"/><path id="emKbCM0qUrc17" d="M300.44,82.61L298.3,82.61L298.3,92.24L295.88,92.24L295.88,82.61L294.51,82.61L294.51,80.61L295.88,80.61L295.88,79.79C295.782477,78.710564,296.171052,77.643815,296.94,76.88C297.905431,76.187416,299.085947,75.861268,300.27,75.96L300.27,77.96C299.727087,77.905768,299.183046,78.051557,298.74,78.37C298.40233,78.761597,298.242912,79.276084,298.3,79.79L298.3,80.61L300.44,80.61Z" transform="matrix(1 0 0 1 -42.34 -52.599998)" fill="rgb(109,231,183)" stroke="none" stroke-width="1"/><path id="emKbCM0qUrc18" d="M306.35,81C306.986037,80.660462,307.699242,80.491636,308.42,80.51L308.42,83L307.81,83C307.034864,82.952046,306.271336,83.206555,305.68,83.71C305.127994,84.412284,304.869894,85.301296,304.96,86.19L304.96,92.29L302.56,92.29L302.56,80.66L305,80.66L305,82.34C305.327356,81.784732,305.792314,81.323219,306.35,81Z" transform="matrix(1 0 0 1 -42.34 -52.599998)" fill="rgb(109,231,183)" stroke="none" stroke-width="1"/><path id="emKbCM0qUrc19" d="M310.76,78.68C310.464967,78.395793,310.304946,77.999379,310.32,77.59C310.31175,77.181745,310.470295,76.787772,310.759034,76.499034C311.047772,76.210295,311.441745,76.05175,311.85,76.06C312.252722,76.049398,312.641235,76.20916,312.92,76.5C313.213964,76.784928,313.373783,77.180844,313.36,77.59C313.368106,77.994737,313.212276,78.385568,312.927916,78.673695C312.643555,78.961822,312.254809,79.12278,311.85,79.12C311.440844,79.133783,311.044928,78.973964,310.76,78.68ZM313.03,80.68L313.03,92.24L310.63,92.24L310.63,80.66Z" transform="matrix(1 0 0 1 -42.34 -52.599998)" fill="rgb(109,231,183)" stroke="none" stroke-width="1"/><path id="emKbCM0qUrc20" d="M316.05,91.94C315.463274,91.331767,315.463274,90.368233,316.05,89.76C316.654854,89.174508,317.615146,89.174508,318.22,89.76C318.806726,90.368233,318.806726,91.331767,318.22,91.94C317.615146,92.525492,316.654854,92.525492,316.05,91.94Z" transform="matrix(1 0 0 1 -42.34 -52.599998)" fill="rgb(109,231,183)" stroke="none" stroke-width="1"/><path id="emKbCM0qUrc21" d="M321.17,83.3C321.619556,82.423892,322.314515,81.69766,323.17,81.21C324.064855,80.701521,325.081055,80.445743,326.11,80.47C327.347335,80.420591,328.567651,80.771257,329.59,81.47C330.524869,82.166456,331.180804,83.173404,331.44,84.31L328.86,84.31C328.673824,83.77037,328.324332,83.302051,327.86,82.97C327.343027,82.635174,326.735522,82.467587,326.12,82.49C325.224427,82.443423,324.3574,82.81237,323.77,83.49C323.142997,84.325587,322.834522,85.357382,322.9,86.4C322.838234,87.445283,323.146217,88.478973,323.77,89.32C324.358305,89.996386,325.224695,90.365062,326.12,90.32C327.350253,90.422024,328.489029,89.664221,328.87,88.49L331.45,88.49C331.156236,89.6136,330.489912,90.604272,329.56,91.3C328.55441,92.002362,327.34541,92.353816,326.12,92.3C325.09018,92.320714,324.074052,92.061497,323.18,91.55C322.328025,91.053387,321.634488,90.325173,321.18,89.45C320.206948,87.469743,320.206948,85.150257,321.18,83.17Z" transform="matrix(1 0 0 1 -42.34 -52.599998)" fill="rgb(109,231,183)" stroke="none" stroke-width="1"/><path id="emKbCM0qUrc22" d="M335.91,91.68C335.034205,91.18792,334.313677,90.460464,333.83,89.58C333.307609,88.617352,333.045634,87.534984,333.07,86.44C333.048803,85.346067,333.317941,84.266061,333.85,83.31C334.346255,82.425426,335.080762,81.697849,335.97,81.21C337.849113,80.22659,340.090887,80.22659,341.97,81.21C342.863546,81.692055,343.599497,82.421063,344.09,83.31C344.622059,84.266061,344.891197,85.346067,344.87,86.44C344.894516,87.536852,344.617818,88.619431,344.07,89.57C343.558237,90.462438,342.806433,91.193455,341.9,91.68C340.97861,92.177345,339.947036,92.435239,338.9,92.43C337.854425,92.449869,336.822413,92.191003,335.91,91.68ZM340.61,89.9C341.161177,89.590719,341.614919,89.133513,341.92,88.58C342.273192,87.923515,342.445738,87.18502,342.42,86.44C342.442327,85.697669,342.277245,84.961679,341.94,84.3C341.643974,83.754993,341.200352,83.30444,340.66,83C339.588459,82.412994,338.291541,82.412994,337.22,83C336.699428,83.3103,336.276656,83.760795,336,84.3C335.674427,84.965141,335.516504,85.699826,335.54,86.44C335.484985,87.496699,335.843665,88.533284,336.54,89.33C337.157936,89.994444,338.033091,90.359092,338.94,90.33C339.523655,90.326933,340.097443,90.179191,340.61,89.9Z" transform="matrix(1 0 0 1 -42.34 -52.599998)" fill="rgb(109,231,183)" stroke="none" stroke-width="1"/><path id="emKbCM0qUrc23" d="M363.72,81C364.444638,81.373661,365.03779,81.959834,365.42,82.68C365.852408,83.509224,366.065821,84.435162,366.04,85.37L366.04,92.2L363.67,92.2L363.67,85.77C363.729071,84.902414,363.449479,84.045716,362.89,83.38C362.333497,82.814477,361.562538,82.512639,360.77,82.55C359.971453,82.511981,359.194079,82.813486,358.63,83.38C358.070521,84.045716,357.790929,84.902414,357.85,85.77L357.85,92.24L355.47,92.24L355.47,85.77C355.529071,84.902414,355.249479,84.045716,354.69,83.38C354.135676,82.811184,353.363174,82.508743,352.57,82.55C351.77446,82.512314,351.000295,82.813984,350.44,83.38C349.872198,84.041543,349.588314,84.900384,349.65,85.77L349.65,92.24L347.26,92.24L347.26,80.66L349.65,80.66L349.65,82C350.054687,81.52033,350.564574,81.140481,351.14,80.89C351.751002,80.620658,352.41229,80.48431,353.08,80.49C353.942861,80.477431,354.795239,80.680214,355.56,81.08C356.278263,81.464763,356.863764,82.057235,357.24,82.78C357.599009,82.065838,358.172462,81.481894,358.88,81.11C359.610179,80.701455,360.433301,80.487925,361.27,80.49C362.116075,80.45721,362.957289,80.63232,363.72,81Z" transform="matrix(1 0 0 1 -42.34 -52.599998)" fill="rgb(109,231,183)" stroke="none" stroke-width="1"/></g><g id="emKbCM0qUrc24"><path id="emKbCM0qUrc25" d="M427,378.86L76.85,378.86C61.12,378.86,48.36,368.86,48.36,356.45L48.36,81C48.36,68.62,61.12,58.59,76.85,58.59L427,58.59C442.73,58.59,455.48,68.59,455.48,81L455.48,356.45C455.48,368.83,442.73,378.86,427,378.86ZM452.94,110L48.36,110" transform="matrix(1 0 0 1 -42.34 -52.599998)" fill="none" stroke="rgb(237,241,255)" stroke-width="12.04" stroke-linecap="round" stroke-linejoin="round"/><path id="emKbCM0qUrc26" d="M136.35,84.31L136.48,84.31M80.05,84.31L80.19,84.31M108.19,84.31L108.33,84.31" transform="matrix(1 0 0 1 -42.34 -52.599998)" fill="none" stroke="rgb(109,231,183)" stroke-width="15.05" stroke-linecap="round" stroke-linejoin="round"/><path id="emKbCM0qUrc27" d="M426,86.46L431.69,95.6L428.3,95.6L424.17,89L420.3,95.6L417,95.6L422.69,86.46L416.97,77.29L420.35,77.29L424.46,84L428.36,77.31L431.7,77.31Z" transform="matrix(1 0 0 1 -42.34 -52.599998)" fill="rgb(109,231,183)" stroke="none" stroke-width="1"/></g><script><![CDATA[!function(t,n){"object"==typeof exports&&"undefined"!=typeof module?module.exports=n(require("vue")):"function"==typeof define&&define.amd?define(["vue"],n):((t="undefined"!=typeof globalThis?globalThis:t||self).__SVGATOR_PLAYER__=t.__SVGATOR_PLAYER__||{},t.__SVGATOR_PLAYER__["5c7f360c"]=n())}(this,(function(){"use strict";function t(t,n){var r=Object.keys(t);if(Object.getOwnPropertySymbols){var e=Object.getOwnPropertySymbols(t);n&&(e=e.filter((function(n){return Object.getOwnPropertyDescriptor(t,n).enumerable}))),r.push.apply(r,e)}return r}function n(n){for(var r=1;r<arguments.length;r++){var e=null!=arguments[r]?arguments[r]:{};r%2?t(Object(e),!0).forEach((function(t){u(n,t,e[t])})):Object.getOwnPropertyDescriptors?Object.defineProperties(n,Object.getOwnPropertyDescriptors(e)):t(Object(e)).forEach((function(t){Object.defineProperty(n,t,Object.getOwnPropertyDescriptor(e,t))}))}return n}function r(t){return(r="function"==typeof Symbol&&"symbol"==typeof Symbol.iterator?function(t){return typeof t}:function(t){return t&&"function"==typeof Symbol&&t.constructor===Symbol&&t!==Symbol.prototype?"symbol":typeof t})(t)}function e(t,n){if(!(t instanceof n))throw new TypeError("Cannot call a class as a function")}function i(t,n){for(var r=0;r<n.length;r++){var e=n[r];e.enumerable=e.enumerable||!1,e.configurable=!0,"value"in e&&(e.writable=!0),Object.defineProperty(t,e.key,e)}}function o(t,n,r){return n&&i(t.prototype,n),r&&i(t,r),t}function u(t,n,r){return n in t?Object.defineProperty(t,n,{value:r,enumerable:!0,configurable:!0,writable:!0}):t[n]=r,t}function a(t){return(a=Object.setPrototypeOf?Object.getPrototypeOf:function(t){return t.__proto__||Object.getPrototypeOf(t)})(t)}function l(t,n){return(l=Object.setPrototypeOf||function(t,n){return t.__proto__=n,t})(t,n)}function f(t,n){if(n&&("object"==typeof n||"function"==typeof n))return n;if(void 0!==n)throw new TypeError("Derived constructors may only return object or undefined");return function(t){if(void 0===t)throw new ReferenceError("this hasn't been initialised - super() hasn't been called");return t}(t)}function s(t){var n=function(){if("undefined"==typeof Reflect||!Reflect.construct)return!1;if(Reflect.construct.sham)return!1;if("function"==typeof Proxy)return!0;try{return Boolean.prototype.valueOf.call(Reflect.construct(Boolean,[],(function(){}))),!0}catch(t){return!1}}();return function(){var r,e=a(t);if(n){var i=a(this).constructor;r=Reflect.construct(e,arguments,i)}else r=e.apply(this,arguments);return f(this,r)}}function c(t,n,r){return(c="undefined"!=typeof Reflect&&Reflect.get?Reflect.get:function(t,n,r){var e=function(t,n){for(;!Object.prototype.hasOwnProperty.call(t,n)&&null!==(t=a(t)););return t}(t,n);if(e){var i=Object.getOwnPropertyDescriptor(e,n);return i.get?i.get.call(r):i.value}})(t,n,r||t)}var h=v(Math.pow(10,-6));function v(t){var n=arguments.length>1&&void 0!==arguments[1]?arguments[1]:6;if(Number.isInteger(t))return t;var r=Math.pow(10,n);return Math.round((+t+Number.EPSILON)*r)/r}function y(t,n){var r=arguments.length>2&&void 0!==arguments[2]?arguments[2]:h;return Math.abs(t-n)<r}var g=Math.PI/180;function d(t){return t}function p(t,n,r){var e=1-r;return 3*r*e*(t*e+n*r)+r*r*r}function m(){var t=arguments.length>0&&void 0!==arguments[0]?arguments[0]:0,n=arguments.length>1&&void 0!==arguments[1]?arguments[1]:0,r=arguments.length>2&&void 0!==arguments[2]?arguments[2]:1,e=arguments.length>3&&void 0!==arguments[3]?arguments[3]:1;return t<0||t>1||r<0||r>1?null:y(t,n)&&y(r,e)?d:function(i){if(i<=0)return t>0?i*n/t:0===n&&r>0?i*e/r:0;if(i>=1)return r<1?1+(i-1)*(e-1)/(r-1):1===r&&t<1?1+(i-1)*(n-1)/(t-1):1;for(var o,u=0,a=1;u<a;){var l=p(t,r,o=(u+a)/2);if(y(i,l))break;l<i?u=o:a=o}return p(n,e,o)}}function b(){return 1}function w(t){return 1===t?1:0}function x(){var t=arguments.length>0&&void 0!==arguments[0]?arguments[0]:1,n=arguments.length>1&&void 0!==arguments[1]?arguments[1]:0;if(1===t){if(0===n)return w;if(1===n)return b}var r=1/t;return function(t){return t>=1?1:(t+=n*r)-t%r}}var A="undefined"!=typeof window&&/(Mac|iPhone|iPod|iPad)/i.test(window.navigator.platform);Object.freeze({Meta:A?"Control":"Meta",Ctrl:"Control",Down:"ArrowDown",Up:"ArrowUp",Left:"ArrowLeft",Right:"ArrowRight",Esc:"Escape",Delete:"Backspace",Space:"Space"});var k=Math.sin,_=Math.cos,S=Math.acos,O=Math.asin,j=Math.tan,P=Math.atan2,M=Math.PI/180,E=180/Math.PI,R=Math.sqrt,I=function(){function t(){var n=arguments.length>0&&void 0!==arguments[0]?arguments[0]:1,r=arguments.length>1&&void 0!==arguments[1]?arguments[1]:0,i=arguments.length>2&&void 0!==arguments[2]?arguments[2]:0,o=arguments.length>3&&void 0!==arguments[3]?arguments[3]:1,u=arguments.length>4&&void 0!==arguments[4]?arguments[4]:0,a=arguments.length>5&&void 0!==arguments[5]?arguments[5]:0;e(this,t),this.m=[n,r,i,o,u,a],this.i=null,this.w=null,this.s=null}return o(t,[{key:"determinant",get:function(){var t=this.m;return t[0]*t[3]-t[1]*t[2]}},{key:"isIdentity",get:function(){if(null===this.i){var t=this.m;this.i=1===t[0]&&0===t[1]&&0===t[2]&&1===t[3]&&0===t[4]&&0===t[5]}return this.i}},{key:"point",value:function(t,n){var r=this.m;return{x:r[0]*t+r[2]*n+r[4],y:r[1]*t+r[3]*n+r[5]}}},{key:"translateSelf",value:function(){var t=arguments.length>0&&void 0!==arguments[0]?arguments[0]:0,n=arguments.length>1&&void 0!==arguments[1]?arguments[1]:0;if(!t&&!n)return this;var r=this.m;return r[4]+=r[0]*t+r[2]*n,r[5]+=r[1]*t+r[3]*n,this.w=this.s=this.i=null,this}},{key:"rotateSelf",value:function(){var t=arguments.length>0&&void 0!==arguments[0]?arguments[0]:0;if(t%=360){var n=k(t*=M),r=_(t),e=this.m,i=e[0],o=e[1];e[0]=i*r+e[2]*n,e[1]=o*r+e[3]*n,e[2]=e[2]*r-i*n,e[3]=e[3]*r-o*n,this.w=this.s=this.i=null}return this}},{key:"scaleSelf",value:function(){var t=arguments.length>0&&void 0!==arguments[0]?arguments[0]:1,n=arguments.length>1&&void 0!==arguments[1]?arguments[1]:1;if(1!==t||1!==n){var r=this.m;r[0]*=t,r[1]*=t,r[2]*=n,r[3]*=n,this.w=this.s=this.i=null}return this}},{key:"skewSelf",value:function(t,n){if(n%=360,(t%=360)||n){var r=this.m,e=r[0],i=r[1],o=r[2],u=r[3];t&&(t=j(t*M),r[2]+=e*t,r[3]+=i*t),n&&(n=j(n*M),r[0]+=o*n,r[1]+=u*n),this.w=this.s=this.i=null}return this}},{key:"resetSelf",value:function(){var t=arguments.length>0&&void 0!==arguments[0]?arguments[0]:1,n=arguments.length>1&&void 0!==arguments[1]?arguments[1]:0,r=arguments.length>2&&void 0!==arguments[2]?arguments[2]:0,e=arguments.length>3&&void 0!==arguments[3]?arguments[3]:1,i=arguments.length>4&&void 0!==arguments[4]?arguments[4]:0,o=arguments.length>5&&void 0!==arguments[5]?arguments[5]:0,u=this.m;return u[0]=t,u[1]=n,u[2]=r,u[3]=e,u[4]=i,u[5]=o,this.w=this.s=this.i=null,this}},{key:"recomposeSelf",value:function(){var t=arguments.length>0&&void 0!==arguments[0]?arguments[0]:null,n=arguments.length>1&&void 0!==arguments[1]?arguments[1]:null,r=arguments.length>2&&void 0!==arguments[2]?arguments[2]:null,e=arguments.length>3&&void 0!==arguments[3]?arguments[3]:null,i=arguments.length>4&&void 0!==arguments[4]?arguments[4]:null;return this.isIdentity||this.resetSelf(),t&&(t.x||t.y)&&this.translateSelf(t.x,t.y),n&&this.rotateSelf(n),r&&(r.x&&this.skewSelf(r.x,0),r.y&&this.skewSelf(0,r.y)),!e||1===e.x&&1===e.y||this.scaleSelf(e.x,e.y),i&&(i.x||i.y)&&this.translateSelf(i.x,i.y),this}},{key:"decompose",value:function(){var t=arguments.length>0&&void 0!==arguments[0]?arguments[0]:0,n=arguments.length>1&&void 0!==arguments[1]?arguments[1]:0,r=this.m,e=r[0]*r[0]+r[1]*r[1],i=[[r[0],r[1]],[r[2],r[3]]],o=R(e);if(0===o)return{origin:{x:v(r[4]),y:v(r[5])},translate:{x:v(t),y:v(n)},scale:{x:0,y:0},skew:{x:0,y:0},rotate:0};i[0][0]/=o,i[0][1]/=o;var u=r[0]*r[3]-r[1]*r[2]<0;u&&(o=-o);var a=i[0][0]*i[1][0]+i[0][1]*i[1][1];i[1][0]-=i[0][0]*a,i[1][1]-=i[0][1]*a;var l=R(i[1][0]*i[1][0]+i[1][1]*i[1][1]);if(0===l)return{origin:{x:v(r[4]),y:v(r[5])},translate:{x:v(t),y:v(n)},scale:{x:v(o),y:0},skew:{x:0,y:0},rotate:0};i[1][0]/=l,i[1][1]/=l,a/=l;var f=0;return i[1][1]<0?(f=S(i[1][1])*E,i[0][1]<0&&(f=360-f)):f=O(i[0][1])*E,u&&(f=-f),a=P(a,R(i[0][0]*i[0][0]+i[0][1]*i[0][1]))*E,u&&(a=-a),{origin:{x:v(r[4]),y:v(r[5])},translate:{x:v(t),y:v(n)},scale:{x:v(o),y:v(l)},skew:{x:v(a),y:0},rotate:v(f)}}},{key:"toString",value:function(){var t=arguments.length>0&&void 0!==arguments[0]?arguments[0]:" ";return null===this.s&&(this.s="matrix("+this.m.map((function(t){return v(t)})).join(t)+")"),this.s}}]),t}();function N(t,n,r){return t>=.5?r:n}function B(t,n,r){return 0===t||n===r?n:t*(r-n)+n}function F(t,n,r){var e=B(t,n,r);return e<=0?0:e}function T(t,n,r){var e=B(t,n,r);return e<=0?0:e>=1?1:e}function q(t,n,r){return 0===t?n:1===t?r:{x:B(t,n.x,r.x),y:B(t,n.y,r.y)}}function L(t,n,r){var e=function(t,n,r){return Math.round(B(t,n,r))}(t,n,r);return e<=0?0:e>=255?255:e}function C(t,n,r){return 0===t?n:1===t?r:{r:L(t,n.r,r.r),g:L(t,n.g,r.g),b:L(t,n.b,r.b),a:B(t,null==n.a?1:n.a,null==r.a?1:r.a)}}function D(t,n){for(var r=[],e=0;e<t;e++)r.push(n);return r}function z(t,n){if(--n<=0)return t;var r=(t=Object.assign([],t)).length;do{for(var e=0;e<r;e++)t.push(t[e])}while(--n>0);return t}var V,G=function(){function t(n){e(this,t),this.list=n,this.length=n.length}return o(t,[{key:"setAttribute",value:function(t,n){for(var r=this.list,e=0;e<this.length;e++)r[e].setAttribute(t,n)}},{key:"removeAttribute",value:function(t){for(var n=this.list,r=0;r<this.length;r++)n[r].removeAttribute(t)}},{key:"style",value:function(t,n){for(var r=this.list,e=0;e<this.length;e++)r[e].style[t]=n}}]),t}(),Y=/-./g,U=function(t,n){return n.toUpperCase()};function $(t){return"function"==typeof t?t:N}function Q(t){return t?"function"==typeof t?t:Array.isArray(t)?function(t){var n=arguments.length>1&&void 0!==arguments[1]?arguments[1]:d;if(!Array.isArray(t))return n;switch(t.length){case 1:return x(t[0])||n;case 2:return x(t[0],t[1])||n;case 4:return m(t[0],t[1],t[2],t[3])||n}return n}(t,null):function(t,n){var r=arguments.length>2&&void 0!==arguments[2]?arguments[2]:d;switch(t){case"linear":return d;case"steps":return x(n.steps||1,n.jump||0)||r;case"bezier":case"cubic-bezier":return m(n.x1||0,n.y1||0,n.x2||0,n.y2||0)||r}return r}(t.type,t.value,null):null}function H(t,n,r){var e=arguments.length>3&&void 0!==arguments[3]&&arguments[3],i=n.length-1;if(t<=n[0].t)return e?[0,0,n[0].v]:n[0].v;if(t>=n[i].t)return e?[i,1,n[i].v]:n[i].v;var o,u=n[0],a=null;for(o=1;o<=i;o++){if(!(t>n[o].t)){a=n[o];break}u=n[o]}return null==a?e?[i,1,n[i].v]:n[i].v:u.t===a.t?e?[o,1,a.v]:a.v:(t=(t-u.t)/(a.t-u.t),u.e&&(t=u.e(t)),e?[o,t,r(t,u.v,a.v)]:r(t,u.v,a.v))}function J(t,n){var r=arguments.length>2&&void 0!==arguments[2]?arguments[2]:null;return t&&t.length?"function"!=typeof n?null:("function"!=typeof r&&(r=null),function(e){var i=H(e,t,n);return null!=i&&r&&(i=r(i)),i}):null}function Z(t,n){return t.t-n.t}function K(t,n,e,i,o){var u,a="@"===e[0],l="#"===e[0],f=V[e],s=N;switch(a?(u=e.substr(1),e=u.replace(Y,U)):l&&(e=e.substr(1)),r(f)){case"function":if(s=f(i,o,H,Q,e,a,n,t),l)return s;break;case"string":s=J(i,$(f));break;case"object":if((s=J(i,$(f.i),f.f))&&"function"==typeof f.u)return f.u(n,s,e,a,t)}return s?function(t,n,r){if(arguments.length>3&&void 0!==arguments[3]&&arguments[3])return t instanceof G?function(e){return t.style(n,r(e))}:function(e){return t.style[n]=r(e)};if(Array.isArray(n)){var e=n.length;return function(i){var o=r(i);if(null==o)for(var u=0;u<e;u++)t[u].removeAttribute(n);else for(var a=0;a<e;a++)t[a].setAttribute(n,o)}}return function(e){var i=r(e);null==i?t.removeAttribute(n):t.setAttribute(n,i)}}(n,e,s,a):null}function W(t,n,e,i){if(!i||"object"!==r(i))return null;var o=null,u=null;return Array.isArray(i)?u=function(t){if(!t||!t.length)return null;for(var n=0;n<t.length;n++)t[n].e&&(t[n].e=Q(t[n].e));return t.sort(Z)}(i):(u=i.keys,o=i.data||null),u?K(t,n,e,u,o):null}function X(t,n,r){if(!r)return null;var e=[];for(var i in r)if(r.hasOwnProperty(i)){var o=W(t,n,i,r[i]);o&&e.push(o)}return e.length?e:null}function tt(t,n){if(!n.duration||n.duration<0)return null;var r=function(t,n){if(!n)return null;var r=[];if(Array.isArray(n))for(var e=n.length,i=0;i<e;i++){var o=n[i];if(2===o.length){var u=null;if("string"==typeof o[0])u=t.getElementById(o[0]);else if(Array.isArray(o[0])){u=[];for(var a=0;a<o[0].length;a++)if("string"==typeof o[0][a]){var l=t.getElementById(o[0][a]);l&&u.push(l)}u=u.length?1===u.length?u[0]:new G(u):null}if(u){var f=X(t,u,o[1]);f&&(r=r.concat(f))}}}else for(var s in n)if(n.hasOwnProperty(s)){var c=t.getElementById(s);if(c){var h=X(t,c,n[s]);h&&(r=r.concat(h))}}return r.length?r:null}(t,n.elements);return r?function(t,n){var r=arguments.length>2&&void 0!==arguments[2]?arguments[2]:1/0,e=arguments.length>3&&void 0!==arguments[3]?arguments[3]:1,i=arguments.length>4&&void 0!==arguments[4]&&arguments[4],o=arguments.length>5&&void 0!==arguments[5]?arguments[5]:1,u=t.length,a=e>0?n:0;i&&r%2==0&&(a=n-a);var l=null;return function(f,s){var c=f%n,h=1+(f-c)/n;s*=e,i&&h%2==0&&(s=-s);var v=!1;if(h>r)c=a,v=!0,-1===o&&(c=e>0?0:n);else if(s<0&&(c=n-c),c===l)return!1;l=c;for(var y=0;y<u;y++)t[y](c);return v}}(r,n.duration,n.iterations||1/0,n.direction||1,!!n.alternate,n.fill||1):null}function nt(t){return+("0x"+(t.replace(/[^0-9a-fA-F]+/g,"")||27))}function rt(t,n,r){return!t||!r||n>t.length?t:t.substring(0,n)+rt(t.substring(n+1),r,r)}function et(t){var n=arguments.length>1&&void 0!==arguments[1]?arguments[1]:27;return!t||t%n?t%n:et(t/n,n)}function it(t,n,r){if(t&&t.length){var e=nt(r),i=nt(n),o=et(e)+5,u=rt(t,et(e,5),o);return u=u.replace(/\x7c$/g,"==").replace(/\x2f$/g,"="),u=function(t,n,r){var e=+("0x"+t.substring(0,4));t=t.substring(4);for(var i=n%e+r%27,o=[],u=0;u<t.length;u+=2)if("|"!==t[u]){var a=+("0x"+t[u]+t[u+1])-i;o.push(a)}else{var l=+("0x"+t.substring(u+1,u+1+4))-i;u+=3,o.push(l)}return String.fromCharCode.apply(String,o)}(u=(u=atob(u)).replace(/[\x41-\x5A]/g,""),i,e),u=JSON.parse(u)}}Number.isInteger||(Number.isInteger=function(t){return"number"==typeof t&&isFinite(t)&&Math.floor(t)===t}),Number.EPSILON||(Number.EPSILON=2220446049250313e-31);var ot=function(){function t(n,r){var i=arguments.length>2&&void 0!==arguments[2]?arguments[2]:{};e(this,t),this._id=0,this._running=!1,this._rollingBack=!1,this._animations=n,this.duration=r.duration,this.alternate=r.alternate,this.fill=r.fill,this.iterations=r.iterations,this.direction=i.direction||1,this.speed=i.speed||1,this.fps=i.fps||100,this.offset=i.offset||0,this.rollbackStartOffset=0}return o(t,[{key:"_rollback",value:function(){var t=this,n=1/0,r=null;this.rollbackStartOffset=this.offset,this._rollingBack||(this._rollingBack=!0,this._running=!0);this._id=window.requestAnimationFrame((function e(i){if(t._rollingBack){null==r&&(r=i);var o=i-r,u=t.rollbackStartOffset-o,a=Math.round(u*t.speed);if(a>t.duration&&n!=1/0){var l=!!t.alternate&&a/t.duration%2>1,f=a%t.duration;a=(f+=l?t.duration:0)||t.duration}var s=t.fps?1e3/t.fps:0,c=Math.max(0,a);if(c<n-s){t.offset=c,n=c;for(var h=t._animations,v=h.length,y=0;y<v;y++)h[y](c,t.direction)}var g=!1;if(t.iterations>0&&-1===t.fill){var d=t.iterations*t.duration,p=d==a;a=p?0:a,t.offset=p?0:t.offset,g=a>d}a>0&&t.offset>=a&&!g?t._id=window.requestAnimationFrame(e):t.stop()}}))}},{key:"_start",value:function(){var t=this,n=arguments.length>0&&void 0!==arguments[0]?arguments[0]:0,r=-1/0,e=null,i={},o=function o(u){t._running=!0,null==e&&(e=u);var a=Math.round((u-e+n)*t.speed),l=t.fps?1e3/t.fps:0;if(a>r+l&&!t._rollingBack){t.offset=a,r=a;for(var f=t._animations,s=f.length,c=0,h=0;h<s;h++)i[h]?c++:(i[h]=f[h](a,t.direction),i[h]&&c++);if(c===s)return void t._stop()}t._id=window.requestAnimationFrame(o)};this._id=window.requestAnimationFrame(o)}},{key:"_stop",value:function(){this._id&&window.cancelAnimationFrame(this._id),this._running=!1,this._rollingBack=!1}},{key:"play",value:function(){!this._rollingBack&&this._running||(this._rollingBack=!1,this.rollbackStartOffset>this.duration&&(this.offset=this.rollbackStartOffset-(this.rollbackStartOffset-this.offset)%this.duration,this.rollbackStartOffset=0),this._start(this.offset))}},{key:"stop",value:function(){this._stop(),this.offset=0,this.rollbackStartOffset=0;var t=this.direction,n=this._animations;window.requestAnimationFrame((function(){for(var r=0;r<n.length;r++)n[r](0,t)}))}},{key:"reachedToEnd",value:function(){return this.iterations>0&&this.offset>=this.iterations*this.duration}},{key:"restart",value:function(){this._stop(),this.offset=0,this._start()}},{key:"pause",value:function(){this._stop()}},{key:"reverse",value:function(){this.direction=-this.direction}}],[{key:"build",value:function(r,e){return delete r.animationSettings,r.options=it(r.options,r.root,"5c7f360c"),r.animations.map((function(t){var e=it(t.s,r.root,"5c7f360c");for(var i in delete t.s,r.animationSettings||(r.animationSettings=n({},e)),e)e.hasOwnProperty(i)&&(t[i]=e[i])})),(r=function(t,n){if(V=n,!t||!t.root||!Array.isArray(t.animations))return null;for(var r=document.getElementsByTagName("svg"),e=!1,i=0;i<r.length;i++)if(r[i].id===t.root&&!r[i].svgatorAnimation){(e=r[i]).svgatorAnimation=!0;break}if(!e)return null;var o=t.animations.map((function(t){return tt(e,t)})).filter((function(t){return!!t}));return o.length?{element:e,animations:o,animationSettings:t.animationSettings,options:t.options||void 0}:null}(r,e))?{el:r.element,options:r.options||{},player:new t(r.animations,r.animationSettings,r.options)}:null}},{key:"push",value:function(t){return this.build(t)}},{key:"init",value:function(){var t=this,n=window.__SVGATOR_PLAYER__&&window.__SVGATOR_PLAYER__["5c7f360c"];Array.isArray(n)&&n.splice(0).forEach((function(n){return t.build(n)}))}}]),t}();function ut(t){return v(t)+""}function at(t){var n=arguments.length>1&&void 0!==arguments[1]?arguments[1]:" ";return t&&t.length?t.map(ut).join(n):""}function lt(t){return t?null==t.a||t.a>=1?"rgb("+t.r+","+t.g+","+t.b+")":"rgba("+t.r+","+t.g+","+t.b+","+t.a+")":"transparent"}function ft(t){return t?"url(#"+t+")":"none"}!function(){for(var t=0,n=["ms","moz","webkit","o"],r=0;r<n.length&&!window.requestAnimationFrame;++r)window.requestAnimationFrame=window[n[r]+"RequestAnimationFrame"],window.cancelAnimationFrame=window[n[r]+"CancelAnimationFrame"]||window[n[r]+"CancelRequestAnimationFrame"];window.requestAnimationFrame||(window.requestAnimationFrame=function(n){var r=Date.now(),e=Math.max(0,16-(r-t)),i=window.setTimeout((function(){n(r+e)}),e);return t=r+e,i},window.cancelAnimationFrame=window.clearTimeout)}();var st={f:null,i:function(t,n,r){return 0===t?n:1===t?r:{x:F(t,n.x,r.x),y:F(t,n.y,r.y)}},u:function(t,n){return function(r){var e=n(r);t.setAttribute("rx",ut(e.x)),t.setAttribute("ry",ut(e.y))}}},ct={f:null,i:function(t,n,r){return 0===t?n:1===t?r:{width:F(t,n.width,r.width),height:F(t,n.height,r.height)}},u:function(t,n){return function(r){var e=n(r);t.setAttribute("width",ut(e.width)),t.setAttribute("height",ut(e.height))}}};Object.freeze({M:2,L:2,Z:0,H:1,V:1,C:6,Q:4,T:2,S:4,A:7});var ht={},vt=null;function yt(t){var n=function(){if(vt)return vt;if("object"!==("undefined"==typeof document?"undefined":r(document))||!document.createElementNS)return{};var t=document.createElementNS("http://www.w3.org/2000/svg","svg");return t&&t.style?(t.style.position="absolute",t.style.opacity="0.01",t.style.zIndex="-9999",t.style.left="-9999px",t.style.width="1px",t.style.height="1px",vt={svg:t}):{}}().svg;if(!n)return function(t){return null};var e=document.createElementNS(n.namespaceURI,"path");e.setAttributeNS(null,"d",t),e.setAttributeNS(null,"fill","none"),e.setAttributeNS(null,"stroke","none"),n.appendChild(e);var i=e.getTotalLength();return function(t){var n=e.getPointAtLength(i*t);return{x:n.x,y:n.y}}}function gt(t){return ht[t]?ht[t]:ht[t]=yt(t)}function dt(t,n,r,e){if(!t||!e)return!1;var i=["M",t.x,t.y];if(n&&r&&(i.push("C"),i.push(n.x),i.push(n.y),i.push(r.x),i.push(r.y)),n?!r:r){var o=n||r;i.push("Q"),i.push(o.x),i.push(o.y)}return n||r||i.push("L"),i.push(e.x),i.push(e.y),i.join(" ")}function pt(t,n,r,e){var i=arguments.length>4&&void 0!==arguments[4]?arguments[4]:1,o=dt(t,n,r,e),u=gt(o);try{return u(i)}catch(t){return null}}function mt(t,n,r,e){var i=1-e;return i*i*t+2*i*e*n+e*e*r}function bt(t,n,r,e){return 2*(1-e)*(n-t)+2*e*(r-n)}function wt(t,n,r,e){var i=arguments.length>4&&void 0!==arguments[4]&&arguments[4],o=pt(t,n,null,r,e);return o||(o={x:mt(t.x,n.x,r.x,e),y:mt(t.y,n.y,r.y,e)}),i&&(o.a=xt(t,n,r,e)),o}function xt(t,n,r,e){return Math.atan2(bt(t.y,n.y,r.y,e),bt(t.x,n.x,r.x,e))}function At(t,n,r,e,i){var o=i*i;return i*o*(e-t+3*(n-r))+3*o*(t+r-2*n)+3*i*(n-t)+t}function kt(t,n,r,e,i){var o=1-i;return 3*(o*o*(n-t)+2*o*i*(r-n)+i*i*(e-r))}function _t(t,n,r,e,i){var o=arguments.length>5&&void 0!==arguments[5]&&arguments[5],u=pt(t,n,r,e,i);return u||(u={x:At(t.x,n.x,r.x,e.x,i),y:At(t.y,n.y,r.y,e.y,i)}),o&&(u.a=St(t,n,r,e,i)),u}function St(t,n,r,e,i){return Math.atan2(kt(t.y,n.y,r.y,e.y,i),kt(t.x,n.x,r.x,e.x,i))}function Ot(t,n,r){return t+(n-t)*r}function jt(t,n,r){var e=arguments.length>3&&void 0!==arguments[3]&&arguments[3],i={x:Ot(t.x,n.x,r),y:Ot(t.y,n.y,r)};return e&&(i.a=Pt(t,n)),i}function Pt(t,n){return Math.atan2(n.y-t.y,n.x-t.x)}function Mt(t,n,r){var e=arguments.length>3&&void 0!==arguments[3]&&arguments[3];if(Rt(n)){if(It(r))return wt(n,r.start,r,t,e)}else if(Rt(r)){if(n.end)return wt(n,n.end,r,t,e)}else{if(n.end)return r.start?_t(n,n.end,r.start,r,t,e):wt(n,n.end,r,t,e);if(r.start)return wt(n,r.start,r,t,e)}return jt(n,r,t,e)}function Et(t,n,r){var e=Mt(t,n,r,!0);return e.a=function(t){return arguments.length>1&&void 0!==arguments[1]&&arguments[1]?t+Math.PI:t}(e.a)/g,e}function Rt(t){return!t.type||"corner"===t.type}function It(t){return null!=t.start&&!Rt(t)}var Nt=new I;var Bt={f:ut,i:B},Ft={f:ut,i:T};function Tt(t,n,r){return t.map((function(t){return function(t,n,r){var e=t.v;if(!e||"g"!==e.t||e.s||!e.v||!e.r)return t;var i=r.getElementById(e.r),o=i&&i.querySelectorAll("stop")||[];return e.s=e.v.map((function(t,n){var r=o[n]&&o[n].getAttribute("offset");return{c:t,o:r=v(parseInt(r)/100)}})),delete e.v,t}(t,0,r)}))}var qt={gt:"gradientTransform",c:{x:"cx",y:"cy"},rd:"r",f:{x:"x1",y:"y1"},to:{x:"x2",y:"y2"}};function Lt(t,n,e,i,o,u,a,l){return Tt(t,0,l),n=function(t,n,r){for(var e,i,o,u=t.length-1,a={},l=0;l<=u;l++)(e=t[l]).e&&(e.e=n(e.e)),e.v&&"g"===(i=e.v).t&&i.r&&(o=r.getElementById(i.r))&&(a[i.r]={e:o,s:o.querySelectorAll("stop")});return a}(t,i,l),function(i){var o=e(i,t,Ct);if(!o)return"none";if("c"===o.t)return lt(o.v);if("g"===o.t){if(!n[o.r])return ft(o.r);var u=n[o.r];return function(t,n){for(var r=t.s,e=r.length;e<n.length;e++){var i=r[r.length-1].cloneNode();i.id=Vt(i.id),t.e.appendChild(i),r=t.s=t.e.querySelectorAll("stop")}for(var o=0,u=r.length,a=n.length-1;o<u;o++)r[o].setAttribute("stop-color",lt(n[Math.min(o,a)].c)),r[o].setAttribute("offset",n[Math.min(o,a)].o)}(u,o.s),Object.keys(qt).forEach((function(t){if(void 0!==o[t])if("object"!==r(qt[t])){var n,e="gt"===t?(n=o[t],Array.isArray(n)?"matrix("+n.join(" ")+")":""):o[t],i=qt[t];u.e.setAttribute(i,e)}else Object.keys(qt[t]).forEach((function(n){if(void 0!==o[t][n]){var r=o[t][n],e=qt[t][n];u.e.setAttribute(e,r)}}))})),ft(o.r)}return"none"}}function Ct(t,r,e){if(0===t)return r;if(1===t)return e;if(r&&e){var i=r.t;if(i===e.t)switch(r.t){case"c":return{t:i,v:C(t,r.v,e.v)};case"g":if(r.r===e.r){var o={t:i,s:Dt(t,r.s,e.s),r:r.r};return r.gt&&e.gt&&(o.gt=function(t,n,r){var e=n.length;if(e!==r.length)return N(t,n,r);for(var i=new Array(e),o=0;o<e;o++)i[o]=B(t,n[o],r[o]);return i}(t,r.gt,e.gt)),r.c?(o.c=q(t,r.c,e.c),o.rd=F(t,r.rd,e.rd)):r.f&&(o.f=q(t,r.f,e.f),o.to=q(t,r.to,e.to)),o}}if("c"===r.t&&"g"===e.t||"c"===e.t&&"g"===r.t){var u="c"===r.t?r:e,a="g"===r.t?n({},r):n({},e),l=a.s.map((function(t){return{c:u.v,o:t.o}}));return a.s="c"===r.t?Dt(t,l,a.s):Dt(t,a.s,l),a}}return N(t,r,e)}function Dt(t,n,r){if(n.length===r.length)return n.map((function(n,e){return zt(t,n,r[e])}));for(var e=Math.max(n.length,r.length),i=[],o=0;o<e;o++){var u=zt(t,n[Math.min(o,n.length-1)],r[Math.min(o,r.length-1)]);i.push(u)}return i}function zt(t,n,r){return{o:T(t,n.o,r.o||0),c:C(t,n.c,r.c||{})}}function Vt(t){return t.replace(/-fill-([0-9]+)$/,(function(t,n){return"-fill-"+(+n+1)}))}var Gt={fill:Lt,"fill-opacity":Ft,stroke:Lt,"stroke-opacity":Ft,"stroke-width":Bt,"stroke-dashoffset":{f:ut,i:B},"stroke-dasharray":{f:function(t){var n=arguments.length>1&&void 0!==arguments[1]?arguments[1]:" ";return t&&t.length>0&&(t=t.map((function(t){return v(t,4)}))),at(t,n)},i:function(t,n,r){var e,i,o,u=n.length,a=r.length;if(u!==a)if(0===u)n=D(u=a,0);else if(0===a)a=u,r=D(u,0);else{var l=(o=(e=u)*(i=a)/function(t,n){for(var r;n;)r=n,n=t%n,t=r;return t||1}(e,i))<0?-o:o;n=z(n,Math.floor(l/u)),r=z(r,Math.floor(l/a)),u=a=l}for(var f=[],s=0;s<u;s++)f.push(v(F(t,n[s],r[s])));return f}},opacity:Ft,transform:function(t,n,e,i){if(!(t=function(t,n){if(!t||"object"!==r(t))return null;var e=!1;for(var i in t)t.hasOwnProperty(i)&&(t[i]&&t[i].length?(t[i].forEach((function(t){t.e&&(t.e=n(t.e))})),e=!0):delete t[i]);return e?t:null}(t,i)))return null;var o=function(r,i,o){var u=arguments.length>3&&void 0!==arguments[3]?arguments[3]:null;return t[r]?e(i,t[r],o):n&&n[r]?n[r]:u};return n&&n.a&&t.o?function(n){var r=e(n,t.o,Et);return Nt.recomposeSelf(r,o("r",n,B,0)+r.a,o("k",n,q),o("s",n,q),o("t",n,q)).toString()}:function(t){return Nt.recomposeSelf(o("o",t,Mt,null),o("r",t,B,0),o("k",t,q),o("s",t,q),o("t",t,q)).toString()}},r:Bt,"#size":ct,"#radius":st,_:function(t,n){if(Array.isArray(t))for(var r=0;r<t.length;r++)this[t[r]]=n;else this[t]=n}},Yt=function(t){!function(t,n){if("function"!=typeof n&&null!==n)throw new TypeError("Super expression must either be null or a function");t.prototype=Object.create(n&&n.prototype,{constructor:{value:t,writable:!0,configurable:!0}}),n&&l(t,n)}(r,t);var n=s(r);function r(){return e(this,r),n.apply(this,arguments)}return o(r,null,[{key:"build",value:function(t){var n=c(a(r),"build",this).call(this,t,Gt);if(!n)return null;n.el,n.options,function(t,n,r){t.play()}(n.player)}}]),r}(ot);return Yt.init(),Yt}));
(function(s,i,o,w){w[o]=w[o]||{};w[o][s]=w[o][s]||[];w[o][s].push(i);})('5c7f360c',{"root":"emKbCM0qUrc1","animations":[{"elements":{"emKbCM0qUrc2":{"transform":{"keys":{"o":[{"t":0,"v":{"x":-32.603833,"y":-50.599998,"type":"corner"}},{"t":300,"v":{"x":-12.995588,"y":-50.599998,"type":"corner"}},{"t":600,"v":{"x":-32.603833,"y":-50.599998,"type":"corner"}},{"t":900,"v":{"x":-32.603833,"y":-50.599998,"type":"corner"}},{"t":1200,"v":{"x":-12.995588,"y":-50.599998,"type":"corner"}},{"t":1500,"v":{"x":-32.603833,"y":-50.599998,"type":"corner"}},{"t":1800,"v":{"x":-12.995588,"y":-50.599998,"type":"corner"}},{"t":2100,"v":{"x":-32.603833,"y":-50.599998,"type":"corner"}},{"t":2400,"v":{"x":-32.603833,"y":-50.599998,"type":"corner"}},{"t":2700,"v":{"x":-12.995588,"y":-50.599998,"type":"corner"}},{"t":3000,"v":{"x":-32.603833,"y":-50.599998,"type":"corner"}}]}}},"emKbCM0qUrc3":{"transform":{"data":{"s":{"x":1,"y":0.947322}},"keys":{"o":[{"t":0,"v":{"x":-41.108907,"y":-47.02971,"type":"corner"}},{"t":700,"v":{"x":-41.108907,"y":-42.812205,"type":"corner"}},{"t":1500,"v":{"x":-41.108907,"y":-47.02971,"type":"corner"}},{"t":2300,"v":{"x":-41.108907,"y":-42.812205,"type":"corner"}},{"t":3000,"v":{"x":-41.108907,"y":-47.02971,"type":"corner"}}]}}},"emKbCM0qUrc4":{"transform":{"keys":{"o":[{"t":0,"v":{"x":-46.159966,"y":-48.909998,"type":"corner"}},{"t":300,"v":{"x":-64.095588,"y":-48.909998,"type":"corner"}},{"t":600,"v":{"x":-44.369774,"y":-48.909998,"type":"corner"}},{"t":900,"v":{"x":-46.159966,"y":-48.909998,"type":"corner"}},{"t":1200,"v":{"x":-64.095588,"y":-48.909998,"type":"corner"}},{"t":1500,"v":{"x":-32.603833,"y":-50.599998,"type":"corner"}},{"t":1800,"v":{"x":-64.095588,"y":-48.909998,"type":"corner"}},{"t":2100,"v":{"x":-44.369774,"y":-48.909998,"type":"corner"}},{"t":2400,"v":{"x":-46.159966,"y":-48.909998,"type":"corner"}},{"t":2700,"v":{"x":-64.095588,"y":-48.909998,"type":"corner"}},{"t":3000,"v":{"x":-44.369774,"y":-48.909998,"type":"corner"}}]}}},"emKbCM0qUrc5":{"transform":{"data":{"t":{"x":-229.051056,"y":-34.245832}},"keys":{"o":[{"t":0,"v":{"x":230.044106,"y":35.593133,"type":"corner"}},{"t":700,"v":{"x":216.68906,"y":35.593133,"type":"corner"}},{"t":1500,"v":{"x":232.20162,"y":35.593138,"type":"corner"}},{"t":2300,"v":{"x":242.723621,"y":35.593133,"type":"corner"}},{"t":3000,"v":{"x":230.7032,"y":35.593133,"type":"corner"}}]}}}},"s":"MADA1MzljNDM4NTk2OTCM4MlQ5NThhOTA4ZjQEzNWI1NDUxTzUxNTE0EZDQzODU4YTkzODY4NIDk1OGE5MDhmNDM1YjDRlNTJZNGQ0M0w4YTkJ1ODY5MzgyOTVVOGE5OMDhmOTRVNDM1YjUxNYGQ0Mzg3OGE4ZDhkNDQM1YjUyUjRkNDM4MjhRkOTU4NjkzOGZGODI5FNTg2NDM1Yjk1OTM5NCks4NjRkNDM5NDkxODJY4Njg1NDM1YjUyOWUV/"}],"options":"MSDAxMDg4VjJmODA4MTOZlN2Y4MTJmNDcyZjcD5N2M2ZTcxMmY4YQ|"},'__SVGATOR_PLAYER__',window)]]></script></svg>